<?xml version="1.0" encoding="UTF-8" standalone="no"?>
<svg
   xmlns="http://www.w3.org/2000/svg"
   version="1.1">
  <defs>
     <marker id="head" orient="auto" markerUnits="strokeWidth"
        viewBox="0 0 10 10" refX="5" refY="5"
        markerWidth="5" markerHeight="5">
       <circle cx="5" cy="5" r="3" fill="red"/>
     </marker>
  </defs>
  <rect
     fill="#000000"
     x="5"
     y="65"
     width="40"
     height="15"
     stroke="#a000a0"
     style="mix-blend-mode:difference;fill:#00a000;fill-opacity:1" />
  <rect
     fill="#000000"
     x="10"
     y="60"
     width="5"
     height="20"
     stroke="#a000a0"
     style="mix-blend-mode:difference;fill:#00a000;fill-opacity:1" />
  <rect
     fill="#000000"
     x="15"
     y="50"
     width="10"
     height="30"
     stroke="#a000a0"
     style="mix-blend-mode:difference;fill:#00a000;fill-opacity:1" />
  <rect
     fill="#000000"
     x="30"
     y="40"
     width="10"
     height="40"
     stroke="#a000a0"
     style="mix-blend-mode:difference;fill:#00a000;fill-opacity:1" />
  <rect
     fill="#000000"
     x="40"
     y="0"
     width="10"
     height="80"
     stroke="#a000a0"
     style="mix-blend-mode:difference;fill:#00a000;fill-opacity:1" />
  <rect
     fill="#000000"
     x="42"
     y="30"
     width="30"
     height="50"
     stroke="#a000a0"
     style="mix-blend-mode:difference;fill:#00a000;fill-opacity:1" />
  <rect
     fill="#000000"
     x="60"
     y="60"
     width="20"
     height="20"
     stroke="#a000a0"
     style="mix-blend-mode:difference;fill:#00a000;fill-opacity:1" />
  <rect
     fill="#000000"
     x="80"
     y="60"
     width="10"
     height="20"
     stroke="#a000a0"
     style="mix-blend-mode:difference;fill:#00a000;fill-opacity:1" />
  <rect
     fill="#000000"
     x="80"
     y="60"
     width="10"
     height="20"
     stroke="#a000a0"
     style="mix-blend-mode:difference;fill:#00a000;fill-opacity:1" />
  <rect
     fill="#000000"
     x="100"
     y="60"
     width="10"
     height="20"
     stroke="#a000a0"
     style="mix-blend-mode:difference;fill:#00a000;fill-opacity:1" />
  <rect
     fill="#000000"
     x="100"
     y="40"
     width="5"
     height="40"
     stroke="#a000a0"
     style="mix-blend-mode:difference;fill:#00a000;fill-opacity:1" />
  <rect
     fill="#000000"
     x="100"
     y="70"
     width="15"
     height="10"
     stroke="#a000a0"
     style="mix-blend-mode:difference;fill:#00a000;fill-opacity:1" />
  <polyline
     points="5,80 5,65 10,65 10,60 15,60 15,50 25,50 25,65 30,65 30,40 40,40 40,0 50,0 50,30 72,30 72,60 90,60 90,80 100,80 100,40 105,40 105,60 110,60 110,70 115,70 115,80"
     stroke="#f0f000"
     style="fill:none"
     marker-start="url(#head)"
     marker-mid="url(#head)"
     marker-end="url(#head)"
     />
</svg>
